<svg xmlns="http://www.w3.org/2000/svg" width="1100" height="500" viewBox="0 0 1100 500"><style>.title{font:700 31px Arial,sans-serif;fill:#24282e}.desc{font:18px Arial,sans-serif;fill:#707981}.cap{font:600 15px Arial,sans-serif;fill:#59626b}.stack{font:15px Arial,sans-serif;fill:#737c84}.btn{font:700 17px Arial,sans-serif}.logo{font:700 72px Arial,sans-serif;fill:#124948}</style><rect width="1100" height="500" fill="#fff"/><rect x="0" width="1100" height="3" fill="#124948"/><text x="70" y="105" class="logo">40+</text><text x="70" y="176" class="title">40+ — E-commerce &amp; Automation</text><text x="70" y="216" class="desc">Commerce experience with WhatsApp-assisted sales, Ritual 40+</text><text x="70" y="244" class="desc">and automated customer communications.</text><rect x="70" y="270" width="245" height="48" rx="7" fill="#124948"/><text x="92" y="301" class="btn" fill="#fff">cuarentamas.com</text><rect x="330" y="270" width="140" height="48" rx="7" fill="#EEF1F4"/><text x="350" y="301" class="btn" fill="#30353B">Case Study</text><text x="70" y="378" class="cap">E-commerce</text><text x="320" y="378" class="cap">WhatsApp integration</text><text x="570" y="378" class="cap">Ritual 40+ &amp; e-book</text><text x="820" y="378" class="cap">Automated communications</text><line x1="70" y1="410" x2="1030" y2="410" stroke="#DDE2E7"/><text x="70" y="462" class="stack">Tech Stack</text><circle cx="180" cy="457" r="13" fill="#61DAFB"/><text x="180" y="462" text-anchor="middle" style="font:700 10px Arial,sans-serif;fill:#fff">⚛</text><text x="200" y="462" class="stack">React</text><circle cx="325" cy="457" r="13" fill="#8B5CF6"/><text x="325" y="462" text-anchor="middle" style="font:700 10px Arial,sans-serif;fill:#fff">V</text><text x="345" y="462" class="stack">Vite</text><circle cx="470" cy="457" r="13" fill="#06B6D4"/><text x="470" y="462" text-anchor="middle" style="font:700 10px Arial,sans-serif;fill:#fff">≈</text><text x="490" y="462" class="stack">Tailwind</text><circle cx="615" cy="457" r="13" fill="#6E4AE2"/><text x="615" y="462" text-anchor="middle" style="font:700 10px Arial,sans-serif;fill:#fff">M</text><text x="635" y="462" class="stack">Make</text><circle cx="760" cy="457" r="13" fill="#111"/><text x="760" y="462" text-anchor="middle" style="font:700 10px Arial,sans-serif;fill:#fff">▲</text><text x="780" y="462" class="stack">Vercel</text></svg>